# xmcd CD database file
# Copyright (C) 1993-1996 Ti Kan
#
# Track frame offsets:
#	150
#	16046
#	34825
#	54094
#	83805
#	96255
#	108275
#	131340
#	143908
#	154710
#	172825
#	181495
#	196825
#	206460
#	229025
#	245025
#	266975
#	281985
#	296475
#
# Disc length: 4442 seconds
#
# Revision: 1
# Processed by: cddbd v1.4b41PL1 Copyright (c) Steve Scherf et al.
# Submitted via: CDValet v3.30 - Copyright (c) 1997 Greg Leichner
#
DISCID=06115813
DTITLE=Various Artist - Storman Norman's CFOX Sunday Blues
DYEAR=1900
DGENRE=
TTITLE0=Dogline Blues (Flatland)
TTITLE1=Traveling Riverside Blues (Colin James and Colin Linden)
TTITLE2=Gambling Blues (John Hammond)
TTITLE3=Preachin' Blues (John Hammond)
TTITLE4=Early One Morning (Kenny Neal and Storman)
TTITLE5=Sweet Home Chicago (Buddy Guy and Storman)
TTITLE6=The Quitter (Brickhouse)
TTITLE7=Bring It On Home (Elbore James)
TTITLE8=Bad Dream #108 (Tinsley Ellis)
TTITLE9=Mean Old River (Harpdog Brown)
TTITLE10=It Ain't Right (The Sidemen)
TTITLE11=Oreo Cookie Blues (Tony D And Suzie Vinnick)
TTITLE12=Dallas (David Gogo)
TTITLE13=Tupelo (Rita Chiarelli and Papa John King)
TTITLE14=Can't Be Satisfied (Nigel Mack and Storman)
TTITLE15=Kindhearted Woman (Black Cat Bone)
TTITLE16=Lemonade (Brickhouse)
TTITLE17=Walk Right In (Johnny Ferreira and The Swing Machine) (B
TTITLE17=onus Studio Track)
TTITLE18=Sacrifice (Harpdog Brown) (Bonus Studio Track)
EXTD=
EXTT0=
EXTT1=
EXTT2=
EXTT3=
EXTT4=
EXTT5=
EXTT6=
EXTT7=
EXTT8=
EXTT9=
EXTT10=
EXTT11=
EXTT12=
EXTT13=
EXTT14=
EXTT15=
EXTT16=
EXTT17=
EXTT18=
PLAYORDER=
